<svg width="70" height="70" viewBox="0 0 70 70" fill="none" xmlns="http://www.w3.org/2000/svg">
<path d="M51.6895 54.1702L41.3908 52.6258L40.9478 50.4131C45.6389 48.8228 49.4845 45.4136 51.6567 41.0244C56.6825 39.4833 60.1562 34.8316 60.1562 29.5312C60.1562 27.7484 59.7603 26.0334 59.0308 24.4661C59.7548 22.9775 60.1562 21.3489 60.1562 19.6875C60.1562 14.3905 56.3697 9.96297 51.3614 8.96328C50.9184 4.55109 47.1844 1.09375 42.6562 1.09375H27.3438C22.8156 1.09375 19.0816 4.55109 18.6386 8.96328C13.6303 9.96297 9.84375 14.3905 9.84375 19.6875C9.84375 21.3489 10.2452 22.9775 10.9692 24.4661C10.2397 26.0334 9.84375 27.7484 9.84375 29.5312C9.84375 32.0545 10.6181 34.4531 12.0739 36.4963C12.1297 37.0847 12.3047 37.6491 12.588 38.1675C11.5894 38.9692 10.9375 40.1855 10.9375 41.5625C10.9375 43.9753 12.8997 45.9375 15.3125 45.9375C16.1077 45.9375 16.8437 45.7089 17.4869 45.3359C18.1508 45.7242 18.9066 45.9375 19.6875 45.9375C20.3295 45.9375 20.9344 45.7909 21.4834 45.5416C23.5955 47.7827 26.1855 49.4627 29.0489 50.4295L28.6092 52.6258L18.3105 54.1702C11.5041 55.1917 6.5625 60.9284 6.5625 67.8125V68.9062H63.4375V67.8125C63.4375 60.9284 58.4959 55.1917 51.6895 54.1702V54.1702ZM43.3377 55.1305L37.765 61.6317L36.4328 60.0567L40.9095 54.7662L43.3377 55.1305ZM12.0312 19.6875C12.0312 14.863 15.9567 10.9375 20.7812 10.9375H27.2891V8.75H20.8797C21.4025 5.65141 24.0975 3.28125 27.3438 3.28125H42.6562C45.8872 3.28125 48.5723 5.62953 49.1137 8.75H42.7109V10.9375H49.2188C54.0433 10.9375 57.9688 14.863 57.9688 19.6875C57.9688 20.5231 57.8408 21.3489 57.6078 22.1441C57.2797 21.7252 56.9341 21.3183 56.5469 20.9398L55.0156 22.5017C56.9198 24.3677 57.9688 26.8658 57.9688 29.5312C57.9688 33.2117 55.9234 36.5116 52.792 38.1981C53.3094 36.4919 53.5938 34.685 53.5938 32.8125V26.1592C53.5938 23.1941 51.1809 20.7812 48.2158 20.7812C39.6036 20.7812 31.2616 18.9744 23.4216 15.4109L22.8977 15.1725L22.4055 15.4689C18.7053 17.6892 16.4062 21.7503 16.4062 26.0652L16.4073 31.7188H16.4062C14.9548 31.7188 13.6763 32.4362 12.88 33.5278C12.3244 32.2809 12.0312 30.9302 12.0312 29.5312C12.0312 26.8647 13.0802 24.3677 14.9844 22.5017L13.4531 20.9398C13.067 21.3183 12.7203 21.7252 12.3922 22.1441C12.1592 21.3489 12.0312 20.5231 12.0312 19.6875V19.6875ZM13.125 41.5625C13.125 40.3561 14.1061 39.375 15.3125 39.375C16.5189 39.375 17.5 40.3561 17.5 41.5625C17.5 42.7689 16.5189 43.75 15.3125 43.75C14.1061 43.75 13.125 42.7689 13.125 41.5625ZM19.1242 43.6669C19.472 43.0402 19.6875 42.3292 19.6875 41.5625C19.6875 39.1497 17.7253 37.1875 15.3125 37.1875C15.0598 37.1875 14.8148 37.2203 14.5731 37.2619C14.3467 36.9141 14.2188 36.5159 14.2188 36.0938C14.2188 34.8873 15.1998 33.9062 16.4062 33.9062C17.1555 33.9062 17.8423 34.2891 18.2492 34.9289L18.807 35.8116L19.7138 35.2953C20.0583 35.0995 20.417 35 20.7812 35C21.9877 35 22.9688 35.9811 22.9688 37.1875C22.9688 37.9367 22.5859 38.6236 21.9461 39.0305L21.0634 39.5883L21.5797 40.495C21.7755 40.8395 21.875 41.1983 21.875 41.5625C21.875 42.7689 20.8939 43.75 19.6875 43.75C19.495 43.75 19.3069 43.7161 19.1242 43.6669V43.6669ZM23.1864 44.1623C23.73 43.4328 24.0625 42.5392 24.0625 41.5625C24.0625 41.1272 23.9958 40.6984 23.8634 40.2839C24.6848 39.4723 25.1562 38.3677 25.1562 37.1875C25.1562 34.7747 23.1941 32.8125 20.7812 32.8125C20.3459 32.8125 19.9172 32.8792 19.5027 33.0116C19.2325 32.7381 18.9219 32.5205 18.5948 32.3291L18.5938 26.0652C18.5938 22.7008 20.2913 19.5256 23.0595 17.6455C31.0275 21.1783 39.4888 22.9688 48.2158 22.9688C49.9745 22.9688 51.4062 24.4005 51.4062 26.1592V32.8125C51.4062 41.8589 44.0464 49.2188 35 49.2188C30.5167 49.2188 26.2752 47.3758 23.1864 44.1623V44.1623ZM35 51.4062C36.3147 51.4062 37.5966 51.2652 38.8347 51.0037L39.2919 53.2908L35 58.3636L30.707 53.2908L31.1653 50.9994C32.4155 51.2619 33.6984 51.4062 35 51.4062ZM29.0905 54.7662L39.2044 66.7188H36.5958L26.6623 55.1305L29.0905 54.7662ZM18.6353 56.3347L24.1106 55.5133L33.717 66.7188H17.5V60.1562H15.3125V66.7188H8.80031C9.28594 61.4217 13.2727 57.1386 18.6353 56.3347V56.3347ZM54.6875 66.7188V60.1562H52.5V66.7188H42.07L39.1956 63.3216L45.8894 55.5133L51.3647 56.3347C56.7273 57.1386 60.7141 61.4217 61.1997 66.7188H54.6875Z" fill="#C41D54"/>
<path d="M43.75 30.625C46.7655 30.625 49.2188 28.6628 49.2188 26.25H47.0312C47.0312 27.4356 45.5284 28.4375 43.75 28.4375C41.9716 28.4375 40.4688 27.4356 40.4688 26.25H38.2812C38.2812 28.6628 40.7345 30.625 43.75 30.625Z" fill="#C41D54"/>
<path d="M26.25 28.4375C24.4716 28.4375 22.9688 27.4356 22.9688 26.25H20.7812C20.7812 28.6628 23.2345 30.625 26.25 30.625C29.2655 30.625 31.7188 28.6628 31.7188 26.25H29.5312C29.5312 27.4356 28.0284 28.4375 26.25 28.4375Z" fill="#C41D54"/>
<path d="M7.65625 30.625C7.65625 28.8159 6.18406 27.3438 4.375 27.3438C2.56594 27.3438 1.09375 28.8159 1.09375 30.625C1.09375 32.4341 2.56594 33.9062 4.375 33.9062C6.18406 33.9062 7.65625 32.4341 7.65625 30.625ZM3.28125 30.625C3.28125 30.0213 3.77125 29.5312 4.375 29.5312C4.97875 29.5312 5.46875 30.0213 5.46875 30.625C5.46875 31.2287 4.97875 31.7188 4.375 31.7188C3.77125 31.7188 3.28125 31.2287 3.28125 30.625Z" fill="#C41D54"/>
<path d="M8.75 42.6562C8.75 40.8472 7.27781 39.375 5.46875 39.375C3.65969 39.375 2.1875 40.8472 2.1875 42.6562C2.1875 44.4653 3.65969 45.9375 5.46875 45.9375C7.27781 45.9375 8.75 44.4653 8.75 42.6562ZM5.46875 43.75C4.865 43.75 4.375 43.26 4.375 42.6562C4.375 42.0525 4.865 41.5625 5.46875 41.5625C6.0725 41.5625 6.5625 42.0525 6.5625 42.6562C6.5625 43.26 6.0725 43.75 5.46875 43.75Z" fill="#C41D54"/>
<path d="M53.5938 49.2188C53.5938 51.0278 55.0659 52.5 56.875 52.5C58.6841 52.5 60.1562 51.0278 60.1562 49.2188C60.1562 47.4097 58.6841 45.9375 56.875 45.9375C55.0659 45.9375 53.5938 47.4097 53.5938 49.2188ZM56.875 48.125C57.4787 48.125 57.9688 48.615 57.9688 49.2188C57.9688 49.8225 57.4787 50.3125 56.875 50.3125C56.2713 50.3125 55.7812 49.8225 55.7812 49.2188C55.7812 48.615 56.2713 48.125 56.875 48.125Z" fill="#C41D54"/>
<path d="M65.625 28.4375C67.4341 28.4375 68.9062 26.9653 68.9062 25.1562C68.9062 23.3472 67.4341 21.875 65.625 21.875C63.8159 21.875 62.3438 23.3472 62.3438 25.1562C62.3438 26.9653 63.8159 28.4375 65.625 28.4375ZM65.625 24.0625C66.2287 24.0625 66.7188 24.5525 66.7188 25.1562C66.7188 25.76 66.2287 26.25 65.625 26.25C65.0213 26.25 64.5312 25.76 64.5312 25.1562C64.5312 24.5525 65.0213 24.0625 65.625 24.0625Z" fill="#C41D54"/>
<path d="M64.5312 35H62.3438C62.3438 37.4128 60.3816 39.375 57.9688 39.375V41.5625C60.3816 41.5625 62.3438 43.5247 62.3438 45.9375H64.5312C64.5312 43.5247 66.4934 41.5625 68.9062 41.5625V39.375C66.4934 39.375 64.5312 37.4128 64.5312 35ZM63.4375 42.3172C62.9508 41.5844 62.3219 40.9555 61.5891 40.4688C62.3219 39.982 62.9508 39.3531 63.4375 38.6203C63.9242 39.3531 64.5531 39.982 65.2859 40.4688C64.5531 40.9555 63.9242 41.5844 63.4375 42.3172Z" fill="#C41D54"/>
</svg>
