<svg width="70" height="70" viewBox="0 0 70 70" fill="none" xmlns="http://www.w3.org/2000/svg">
<path d="M68.9621 24.6415C69.6204 23.9887 69.9908 23.1 69.9908 22.1729C69.9804 20.2401 68.4143 18.6769 66.4815 18.6699H66.4696C65.5445 18.6712 64.6586 19.0434 64.0101 19.7031L60.0433 23.6693C59.0977 23.4483 58.1301 23.3348 57.1591 23.3306V11.9746L61.6713 4.07807C61.6829 4.05792 61.6822 4.03499 61.6925 4.01442C61.7246 3.94312 61.7492 3.86891 61.766 3.79261C61.7888 3.71881 61.8042 3.64307 61.8117 3.56621C61.8131 3.54286 61.8252 3.52313 61.8252 3.49936C61.8181 3.42459 61.8064 3.35037 61.7902 3.27713C61.7832 3.24169 61.7838 3.20639 61.7736 3.17179C61.239 0.10076 53.4155 0 52.493 0C51.5704 0 43.747 0.10076 43.2124 3.17193C43.2022 3.20653 43.2028 3.24197 43.1958 3.27727C43.1796 3.35051 43.1679 3.42473 43.1608 3.4995C43.1608 3.52327 43.1729 3.543 43.1743 3.56635C43.1818 3.6432 43.1971 3.71909 43.22 3.79275C43.2368 3.86905 43.2614 3.9434 43.2935 4.01456C43.3038 4.03526 43.3031 4.05806 43.3147 4.07821L47.827 11.9747V23.3303H43.1609V15.5975C44.0026 14.3774 44.4132 12.9115 44.3274 11.4316C44.3274 8.16559 40.7932 5.24355 40.3898 4.92126C40.3609 4.89805 40.3256 4.89249 40.2953 4.87248C40.168 4.79173 40.0278 4.73378 39.8806 4.70111C39.5853 4.64844 39.2811 4.70945 39.0288 4.87164C38.998 4.89179 38.962 4.89763 38.9326 4.92112C38.5293 5.24355 34.9951 8.16545 34.9951 11.4315C34.9095 12.9112 35.32 14.3771 36.1615 15.5972V23.3302H32.662V12.8317C32.6566 12.7946 32.6491 12.7577 32.6399 12.7215C32.6422 12.6834 32.6423 12.6453 32.6405 12.6072L31.4261 6.4328C31.1643 5.38309 30.2149 4.65108 29.1331 4.66498C28.0513 4.67888 27.1209 5.43479 26.8859 6.49089L25.6846 12.6071C25.6828 12.6452 25.6829 12.6833 25.6851 12.7213C25.6758 12.7576 25.6685 12.7944 25.663 12.8315V23.3302H23.33V18.6641C23.3285 17.3762 22.2849 16.3326 20.9969 16.331V13.6736C21.7162 13.2602 22.1608 12.4948 22.1634 11.6651V2.33305C22.1621 1.04512 21.1184 0.00152877 19.8306 0H13.9981C12.7102 0.00152877 11.6666 1.04512 11.665 2.33305V11.6652C11.6678 12.4949 12.1123 13.2603 12.8315 13.6738V16.3313C11.5436 16.3329 10.5 17.3764 10.4984 18.6644V23.5503C4.4142 24.6751 0.00161031 29.9851 0.00953213 36.1724L0.0334366 67.6032C0.0160642 68.2329 0.254136 68.8427 0.693449 69.2941C1.13276 69.7455 1.73593 70.0001 2.36593 70H67.6246C68.2488 70.0001 68.847 69.7503 69.2855 69.3059C69.7239 68.8618 69.966 68.2603 69.9577 67.6361L69.981 36.1721C69.9905 32.8362 68.6912 29.6296 66.3623 27.2412L68.9621 24.6415ZM65.6653 21.3469C65.8789 21.1279 66.1716 21.0039 66.4775 21.003H66.481C66.9552 20.9971 67.3855 21.28 67.5681 21.7176C67.7507 22.1553 67.6491 22.66 67.3114 22.993L64.5868 25.7176C63.9321 25.2495 63.2344 24.8448 62.5031 24.5087L65.6653 21.3469ZM45.6805 3.51645C46.4335 3.03031 48.7838 2.33305 52.493 2.33305C56.2022 2.33305 58.5525 3.03031 59.3055 3.51645L55.3158 10.4986H49.6703L45.6805 3.51645ZM50.1599 15.1647V12.8317H54.826V15.1647H50.1599ZM54.826 17.4978V23.3303H50.1599V17.4978H54.826ZM37.3283 11.4316C37.3283 10.0086 38.6655 8.38129 39.6613 7.40412C40.6571 8.38129 41.9944 10.0086 41.9944 11.4316C42.043 12.3219 41.8495 13.2089 41.4348 13.9981H37.8877C37.4731 13.2087 37.2798 12.3219 37.3283 11.4316ZM38.4949 18.6642V16.3312H40.8279V18.6642H38.4949ZM40.8278 20.9973V23.3303H38.4947V20.9973H40.8278ZM29.1496 6.93979L30.0777 11.6651H28.2418L29.1496 6.93979ZM27.9962 13.9981H30.3293V23.3303H27.9962V13.9981ZM13.9979 2.33305H19.8305L19.8316 11.6652H13.9978V2.33305H13.9979ZM12.8315 18.6642C14.1194 18.6627 15.163 17.6191 15.1645 16.3312V13.9981H18.664V16.3312C18.6656 17.6191 19.7092 18.6627 20.9971 18.6642V23.3303H12.8411L12.8313 23.3309V18.6642H12.8315ZM67.648 36.1699L67.6246 67.667L2.36593 67.6339L2.34258 36.1698C2.34035 33.3839 3.44552 30.7115 5.41472 28.7409C7.38378 26.7703 10.0555 25.6631 12.8412 25.6632H57.1494C59.9352 25.6632 62.6068 26.7703 64.5759 28.7409C66.5451 30.7117 67.6502 33.3841 67.648 36.1699Z" fill="#FF7474"/>
<path d="M43.8875 32.6716H43.8796C41.8668 32.6759 39.947 33.5203 38.5837 35.0011L34.9952 38.8379L31.404 34.9978C30.0407 33.5188 28.1223 32.6757 26.1108 32.6716H26.1029C24.0951 32.6771 22.1809 33.5213 20.8228 35C17.9556 38.1364 17.9559 42.9424 20.8233 46.0785L34.1437 60.2988C34.3642 60.5343 34.6725 60.668 34.9952 60.668C35.3179 60.668 35.6262 60.5344 35.8467 60.2988L49.1671 46.0785C52.0343 42.9423 52.0343 38.1362 49.1671 35C47.8092 33.5211 45.8952 32.677 43.8875 32.6716ZM47.4669 44.4813L47.4651 44.4837L34.9952 57.7948L22.5235 44.4813C20.4828 42.2482 20.4835 38.8269 22.5251 36.5948C23.4446 35.589 24.7423 35.0125 26.105 35.0046H26.1101C27.4766 35.011 28.7785 35.5869 29.7025 36.5937L34.143 41.3418C34.3687 41.5682 34.6753 41.6955 34.9951 41.6955C35.3149 41.6955 35.6214 41.5682 35.8471 41.3418L40.2848 36.5972C41.2088 35.5886 42.512 35.0113 43.88 35.0046H43.8852C45.2479 35.0125 46.5452 35.589 47.4644 36.5949C49.5067 38.8268 49.5077 42.2482 47.4669 44.4813Z" fill="#FF7474"/>
<path d="M5.83237 36.1711C5.523 36.1709 5.22614 36.2939 5.00738 36.5127C4.78863 36.7314 4.66577 37.0281 4.66577 37.3376V52.5022C4.66577 53.1465 5.18806 53.6687 5.83223 53.6687C6.4764 53.6687 6.99868 53.1464 6.99868 52.5022V37.3376C6.99882 37.0283 6.87582 36.7316 6.65707 36.5127C6.43859 36.2939 6.14173 36.1711 5.83237 36.1711Z" fill="#FF7474"/>
<path d="M5.83237 56.0019C5.523 56.0017 5.22614 56.1247 5.00738 56.3435C4.78863 56.5622 4.66577 56.8589 4.66577 57.1685V61.8345C4.66577 62.4789 5.18806 63.001 5.83223 63.001C6.4764 63.001 6.99868 62.4787 6.99868 61.8345V57.1685C6.99882 56.8591 6.87582 56.5622 6.65707 56.3435C6.43859 56.1246 6.14173 56.0017 5.83237 56.0019Z" fill="#FF7474"/>
</svg>
