<svg width="70" height="70" viewBox="0 0 70 70" fill="none" xmlns="http://www.w3.org/2000/svg">
<path d="M68.9619 24.6415C69.6203 23.9887 69.9907 23.1 69.9907 22.1729C69.9802 20.2401 68.4142 18.6769 66.4814 18.6699H66.4695C65.5444 18.6712 64.6584 19.0434 64.01 19.7031L60.0432 23.6693C59.0976 23.4483 58.13 23.3348 57.159 23.3306V11.9746L61.6712 4.07807C61.6827 4.05792 61.682 4.03499 61.6923 4.01442C61.7244 3.94312 61.749 3.86891 61.7659 3.79261C61.7886 3.71881 61.8041 3.64307 61.8116 3.56621C61.813 3.54286 61.8251 3.52313 61.8251 3.49936C61.818 3.42459 61.8063 3.35037 61.79 3.27713C61.7831 3.24169 61.7836 3.20639 61.7735 3.17179C61.2388 0.10076 53.4154 0 52.4929 0C51.5703 0 43.7469 0.10076 43.2122 3.17193C43.2021 3.20653 43.2027 3.24197 43.1957 3.27727C43.1795 3.35051 43.1678 3.42473 43.1607 3.4995C43.1607 3.52327 43.1728 3.543 43.1742 3.56635C43.1817 3.6432 43.197 3.71909 43.2199 3.79275C43.2367 3.86905 43.2613 3.9434 43.2934 4.01456C43.3037 4.03526 43.303 4.05806 43.3145 4.07821L47.8269 11.9747V23.3303H43.1608V15.5975C44.0025 14.3774 44.413 12.9115 44.3273 11.4316C44.3273 8.16559 40.793 5.24355 40.3897 4.92126C40.3608 4.89805 40.3255 4.89249 40.2952 4.87248C40.1679 4.79173 40.0277 4.73378 39.8805 4.70111C39.5852 4.64844 39.2809 4.70945 39.0287 4.87164C38.9978 4.89179 38.9618 4.89763 38.9325 4.92112C38.5292 5.24355 34.995 8.16545 34.995 11.4315C34.9093 12.9112 35.3199 14.3771 36.1614 15.5972V23.3302H32.6619V12.8317C32.6565 12.7946 32.649 12.7577 32.6398 12.7215C32.642 12.6834 32.6422 12.6453 32.6404 12.6072L31.426 6.4328C31.1641 5.38309 30.2148 4.65108 29.133 4.66498C28.0511 4.67888 27.1208 5.43479 26.8858 6.49089L25.6845 12.6071C25.6826 12.6452 25.6828 12.6833 25.685 12.7213C25.6757 12.7576 25.6683 12.7944 25.6629 12.8315V23.3302H23.3299V18.6641C23.3283 17.3762 22.2847 16.3326 20.9968 16.331V13.6736C21.716 13.2602 22.1606 12.4948 22.1633 11.6651V2.33305C22.162 1.04512 21.1183 0.00152877 19.8305 0H13.998C12.71 0.00152877 11.6664 1.04512 11.6649 2.33305V11.6652C11.6677 12.4949 12.1121 13.2603 12.8314 13.6738V16.3313C11.5434 16.3329 10.4998 17.3764 10.4983 18.6644V23.5503C4.41408 24.6751 0.00148824 29.9851 0.00941006 36.1724L0.0333145 67.6032C0.0159421 68.2329 0.254014 68.8427 0.693327 69.2941C1.13264 69.7455 1.73581 70.0001 2.36581 70H67.6245C68.2487 70.0001 68.8469 69.7503 69.2853 69.3059C69.7238 68.8618 69.9659 68.2603 69.9576 67.6361L69.9809 36.1721C69.9904 32.8362 68.6911 29.6296 66.3622 27.2412L68.9619 24.6415ZM65.6652 21.3469C65.8788 21.1279 66.1715 21.0039 66.4774 21.003H66.4809C66.9551 20.9971 67.3853 21.28 67.568 21.7176C67.7506 22.1553 67.649 22.66 67.3113 22.993L64.5867 25.7176C63.932 25.2495 63.2343 24.8448 62.503 24.5087L65.6652 21.3469ZM45.6804 3.51646C46.4334 3.03031 48.7837 2.33305 52.4929 2.33305C56.2021 2.33305 58.5524 3.03031 59.3054 3.51646L55.3157 10.4986H49.6702L45.6804 3.51646ZM50.1598 15.1647V12.8317H54.8259V15.1647H50.1598V15.1647ZM54.8259 17.4978V23.3303H50.1598V17.4978H54.8259ZM37.3281 11.4316C37.3281 10.0086 38.6654 8.38129 39.6612 7.40412C40.657 8.38129 41.9942 10.0086 41.9942 11.4316C42.0429 12.3219 41.8494 13.2089 41.4347 13.9981H37.8875C37.473 13.2087 37.2796 12.3219 37.3281 11.4316ZM38.4947 18.6642V16.3312H40.8278V18.6642H38.4947ZM40.8276 20.9973V23.3303H38.4946V20.9973H40.8276ZM29.1495 6.93979L30.0776 11.6651H28.2417L29.1495 6.93979ZM27.9961 13.9981H30.3291V23.3303H27.9961V13.9981ZM13.9978 2.33305H19.8304L19.8315 11.6652H13.9977V2.33305H13.9978ZM12.8314 18.6642C14.1193 18.6627 15.1629 17.6191 15.1644 16.3312V13.9981H18.6639V16.3312C18.6654 17.6191 19.709 18.6627 20.997 18.6642V23.3303H12.841L12.8312 23.3309V18.6642H12.8314ZM67.6479 36.1699L67.6245 67.667L2.36581 67.6339L2.34246 36.1698C2.34023 33.3839 3.4454 30.7115 5.41459 28.7409C7.38365 26.7703 10.0554 25.6631 12.8411 25.6632H57.1492C59.9351 25.6632 62.6067 26.7703 64.5757 28.7409C66.5449 30.7117 67.6501 33.3841 67.6479 36.1699Z" fill="#C41D54"/>
<path d="M43.8874 32.6716H43.8795C41.8666 32.6759 39.9469 33.5203 38.5835 35.0011L34.9951 38.8379L31.4039 34.9978C30.0406 33.5188 28.1221 32.6757 26.1107 32.6716H26.1028C24.0949 32.6771 22.1808 33.5213 20.8227 35C17.9555 38.1364 17.9558 42.9424 20.8232 46.0785L34.1436 60.2988C34.3641 60.5343 34.6724 60.668 34.9951 60.668C35.3178 60.668 35.6261 60.5344 35.8466 60.2988L49.1669 46.0785C52.0342 42.9423 52.0342 38.1362 49.1669 35C47.8091 33.5212 45.8951 32.677 43.8874 32.6716ZM47.4668 44.4813L47.465 44.4837L34.9951 57.7949L22.5234 44.4813C20.4827 42.2482 20.4834 38.827 22.525 36.5948C23.4445 35.589 24.7422 35.0125 26.1049 35.0046H26.11C27.4764 35.011 28.7784 35.5869 29.7023 36.5937L34.1429 41.3418C34.3686 41.5682 34.6752 41.6955 34.9949 41.6955C35.3147 41.6955 35.6213 41.5682 35.847 41.3418L40.2846 36.5972C41.2087 35.5886 42.5119 35.0113 43.8799 35.0046H43.885C45.2477 35.0125 46.5451 35.589 47.4643 36.595C49.5066 38.8268 49.5076 42.2482 47.4668 44.4813Z" fill="#C41D54"/>
<path d="M5.83224 36.171C5.52287 36.1709 5.22601 36.2939 5.00726 36.5126C4.78851 36.7314 4.66565 37.0281 4.66565 37.3376V52.5022C4.66565 53.1465 5.18793 53.6687 5.8321 53.6687C6.47627 53.6687 6.99856 53.1464 6.99856 52.5022V37.3376C6.9987 37.0282 6.8757 36.7315 6.65695 36.5126C6.43847 36.2939 6.14161 36.171 5.83224 36.171Z" fill="#C41D54"/>
<path d="M5.83224 56.0019C5.52287 56.0018 5.22601 56.1248 5.00726 56.3435C4.78851 56.5623 4.66565 56.859 4.66565 57.1685V61.8346C4.66565 62.4789 5.18793 63.001 5.8321 63.001C6.47627 63.001 6.99856 62.4787 6.99856 61.8346V57.1685C6.9987 56.8591 6.8757 56.5623 6.65695 56.3435C6.43847 56.1246 6.14161 56.0018 5.83224 56.0019Z" fill="#C41D54"/>
</svg>
