<svg width="70" height="70" viewBox="0 0 70 70" fill="none" xmlns="http://www.w3.org/2000/svg">
<g clip-path="url(#clip0)">
<path d="M28.2854 35.6047C28.0298 35.3504 27.6784 35.2041 27.3176 35.2041C26.958 35.2041 26.6054 35.3504 26.3511 35.6047C26.0968 35.859 25.9519 36.2117 25.9519 36.5711C25.9519 36.9306 26.0968 37.2833 26.3511 37.5376C26.6068 37.7919 26.9582 37.9382 27.3176 37.9382C27.6785 37.9382 28.0298 37.7919 28.2854 37.5376C28.5397 37.2833 28.6847 36.9306 28.6847 36.5711C28.6847 36.2117 28.5397 35.8588 28.2854 35.6047Z" fill="#FF7474"/>
<path d="M66.1737 25.6998C65.0207 24.5849 63.6877 23.7175 62.2434 23.1217C61.3058 17.3985 58.6396 12.203 54.5221 8.08528C43.7552 -2.6813 26.2365 -2.6813 15.4698 8.08528C12.0594 11.4957 9.61473 15.7105 8.35569 20.3292C7.57749 20.2993 6.79518 20.4945 6.09559 20.9134C4.84667 21.6612 4.10114 22.9765 4.10114 24.4322V35.2231C3.13673 35.646 2.46066 36.6086 2.46066 37.7272V43.756C1.08103 43.8938 0 45.0611 0 46.4764V65.8882C0 68.1495 1.83968 69.9894 4.10114 69.9894H16.6779C18.9392 69.9894 20.779 68.1497 20.779 65.8882V51.2932C23.8922 53.1703 27.3139 54.3955 30.8951 54.925V61.7786H30.2347C26.4612 61.7786 23.391 64.8487 23.391 68.6223C23.391 69.3773 24.0031 69.9894 24.7581 69.9894H45.2343C45.9892 69.9894 46.6013 69.3773 46.6013 68.6223C46.6013 64.8487 43.5312 61.7786 39.7576 61.7786H39.0977V54.9241C42.9152 54.3596 46.5423 53.0082 49.8029 50.9285V64.5883C49.8029 67.5666 52.2258 69.9895 55.2041 69.9895H59.2368C62.2151 69.9895 64.638 67.5666 64.638 64.5883V48.4874L68.7023 40.2397C71.1163 35.3401 70.1003 29.497 66.1737 25.6998ZM6.83524 24.4323C6.83524 23.733 7.30022 23.3792 7.49997 23.2594C7.69985 23.1396 8.23127 22.8968 8.84774 23.2273L13.2222 25.5712C13.6672 25.8096 13.9435 26.2713 13.9435 26.7761V34.9931H6.83524V24.4323ZM5.19489 37.7275H15.5844V43.7424H5.19489V37.7275ZM18.0449 65.8884C18.0449 66.6421 17.4317 67.2554 16.6779 67.2554H4.10114C3.34742 67.2554 2.7341 66.6422 2.7341 65.8884V46.4765H18.0448V65.8884H18.0449ZM39.7577 64.5127C41.5448 64.5127 43.0691 65.6592 43.6336 67.2554H26.3589C26.9234 65.6592 28.4477 64.5127 30.2349 64.5127H32.2621H37.7303H39.7577ZM33.6292 61.7786V55.1915C34.0801 55.2132 34.5325 55.2253 34.9868 55.2253C35.1116 55.2253 35.2369 55.2244 35.3618 55.2228C35.6968 55.2184 36.0304 55.2072 36.3633 55.1911V61.7786H33.6292ZM20.7789 48.0329V46.4764C20.779 45.0611 19.698 43.8938 18.3184 43.7561V37.7274C18.3184 36.6087 17.6424 35.6461 16.6779 35.2232V26.7762C16.6779 25.2616 15.8487 23.8765 14.5138 23.1614L10.941 21.2472C12.0584 17.0094 14.2813 13.1407 17.4033 10.0188C27.104 0.31803 42.8883 0.318167 52.5889 10.0188C55.9966 13.4265 58.3017 17.6527 59.3093 22.3137C58.704 22.2247 58.0887 22.1788 57.467 22.1788C56.7628 22.1788 56.0673 22.2404 55.3851 22.3543C54.2816 18.0741 51.8242 14.203 48.3882 11.3672C44.6315 8.26684 39.8755 6.55937 34.9965 6.55937C31.2949 6.55937 27.654 7.5339 24.4674 9.37782C21.377 11.166 18.7723 13.7294 16.9342 16.7915C16.5457 17.4387 16.7554 18.2786 17.4029 18.6672C18.0501 19.0554 18.8898 18.846 19.2785 18.1985C22.6255 12.6224 28.5016 9.29319 34.9967 9.29319C36.7492 9.29319 38.4559 9.54502 40.0783 10.0166L29.9897 20.105C29.4559 20.6389 29.4559 21.5045 29.9897 22.0382C30.2568 22.3052 30.6065 22.4387 30.9563 22.4387C31.3062 22.4387 31.6561 22.3051 31.9229 22.0382L42.8755 11.0858C44.6177 11.9201 46.2159 13.0229 47.6106 14.3453L30.0453 31.9108C29.5114 32.4447 29.5114 33.3103 30.0453 33.8441C30.3123 34.1111 30.662 34.2446 31.0119 34.2446C31.3617 34.2446 31.7116 34.1111 31.9785 33.8441L49.4516 16.371C50.9773 18.3228 52.1202 20.5983 52.7532 23.0946C51.2845 23.691 49.9299 24.5687 48.76 25.7001L48.6049 25.8501C44.7825 29.5464 43.7114 35.2738 45.9393 40.1017L46.6843 41.7163C43.4027 44.4391 39.2836 45.9298 34.996 45.9298C31.4592 45.9298 28.027 44.9204 25.0706 43.0106C24.4365 42.6007 23.5902 42.7829 23.1806 43.4172C22.7709 44.0513 22.953 44.8976 23.5872 45.3072C26.9866 47.503 30.9317 48.6637 34.9961 48.6637C39.6809 48.6637 44.1899 47.1143 47.8643 44.2726L49.5047 47.827C41.0369 53.9125 29.3469 54.0101 20.7789 48.0329ZM61.9035 64.5883C61.9035 66.059 60.7071 67.2554 59.2364 67.2554H55.2036C53.733 67.2554 52.5365 66.059 52.5365 64.5883V56.0269H61.9034V64.5883H61.9035ZM61.9035 53.2929H52.5367V49.511H61.9035V53.2929ZM66.2493 39.0312L62.4324 46.777H61.731V41.1628C61.731 40.4079 61.1189 39.7958 60.3639 39.7958C59.609 39.7958 58.9969 40.4079 58.9969 41.1628V46.777H52.0312L48.422 38.956C46.6802 35.1819 47.5177 30.7049 50.5059 27.8151L50.6609 27.6651C54.4773 23.9744 60.4566 23.9743 64.2733 27.6651C67.3426 30.6334 68.1368 35.2011 66.2493 39.0312Z" fill="#FF7474"/>
<path d="M61.3308 35.6047C61.0765 35.3504 60.7238 35.2041 60.3644 35.2041C60.0048 35.2041 59.6522 35.3504 59.3979 35.6047C59.1436 35.859 58.9973 36.2117 58.9973 36.5711C58.9973 36.9306 59.1436 37.2833 59.3979 37.5376C59.6522 37.7919 60.0049 37.9382 60.3644 37.9382C60.7239 37.9382 61.0765 37.7919 61.3308 37.5376C61.5851 37.2833 61.7314 36.9306 61.7314 36.5711C61.7314 36.2117 61.5851 35.8588 61.3308 35.6047Z" fill="#FF7474"/>
</g>
<defs>
<clipPath id="clip0">
<rect width="70" height="70" fill="white"/>
</clipPath>
</defs>
</svg>
