<svg width="70" height="70" viewBox="0 0 70 70" fill="none" xmlns="http://www.w3.org/2000/svg">
<g clip-path="url(#clip0)">
<path d="M69.763 33.2108L58.7858 17.088C56.4902 13.7165 53.0827 11.1876 49.1908 9.96711C45.2986 8.74689 41.0573 8.87705 37.2476 10.3343L27.2243 14.1681C26.519 14.4378 26.1661 15.2281 26.4357 15.9333C26.7055 16.6385 27.4959 16.9911 28.2011 16.7219L38.2244 12.8881C44.9485 10.3167 52.4741 12.6762 56.5257 18.6269L63.2681 28.5295L51.1684 20.0076C48.6325 18.2215 45.3658 17.7529 42.4297 18.7542L6.02369 31.1701C4.75658 31.6029 3.36368 30.9263 2.91934 29.6632C2.35059 28.0465 3.15901 26.3001 4.75986 25.6879L17.2866 20.8966C17.992 20.6268 18.3448 19.8366 18.0752 19.1314C17.8053 18.4261 17.0148 18.0735 16.3099 18.3428L3.783 23.1343C0.788435 24.2796 -0.723817 27.5459 0.339859 30.5704C1.27967 33.2423 4.22515 34.6726 6.90621 33.7579L43.3125 21.3422C45.4228 20.6223 47.7711 20.9592 49.5942 22.2431L67.8461 35.098C68.0837 35.2654 68.3589 35.3474 68.6329 35.3474C68.9818 35.3474 69.3285 35.2142 69.5923 34.9546C70.0629 34.491 70.1349 33.757 69.763 33.2108Z" fill="#C41D54"/>
<path d="M23.5618 16.4362C23.3075 16.1806 22.9548 16.0356 22.5953 16.0356C22.2358 16.0356 21.883 16.1806 21.6289 16.4362C21.3746 16.6905 21.2283 17.042 21.2283 17.4027C21.2283 17.7623 21.3746 18.115 21.6289 18.3692C21.8832 18.6235 22.2359 18.7698 22.5953 18.7698C22.9549 18.7698 23.3076 18.6235 23.5618 18.3692C23.8161 18.1149 23.9624 17.7621 23.9624 17.4027C23.9624 17.0418 23.8161 16.6905 23.5618 16.4362Z" fill="#C41D54"/>
<path d="M58.9883 46.3067L58.9365 46.2907C57.2907 45.7799 55.8741 44.7567 54.8751 43.3743C55.9009 42.5477 56.89 41.6634 57.8347 40.7187C58.3686 40.1848 58.3686 39.3192 57.8347 38.7852C57.3009 38.2514 56.4352 38.2514 55.9013 38.7852C50.5398 44.1469 43.6912 47.481 36.2857 48.4037C36.236 48.4071 36.1871 48.4128 36.139 48.4213C34.7916 48.5833 33.4263 48.6663 32.0482 48.6665C32.0475 48.6665 32.0468 48.6663 32.046 48.6663C32.0452 48.6663 32.0446 48.6665 32.0438 48.6665C30.6657 48.6665 29.3004 48.5833 27.9529 48.4213C27.9048 48.4127 27.856 48.407 27.8062 48.4037C20.4007 47.481 13.5521 44.1469 8.19054 38.7852C7.65665 38.2516 6.79108 38.2514 6.25719 38.7852C5.7233 39.3191 5.7233 40.1847 6.25719 40.7187C7.20192 41.6634 8.19095 42.5479 9.21675 43.3743C8.21788 44.7567 6.80161 45.78 5.15715 46.2901L5.10355 46.3067C4.38209 46.5295 3.97794 47.2949 4.2008 48.0164C4.38209 48.6034 4.92281 48.9804 5.50647 48.9804C5.64018 48.9804 5.77608 48.9605 5.91033 48.9191L5.96571 48.902C8.16798 48.2186 10.0648 46.8529 11.408 45.0087C11.8755 45.3309 12.3495 45.6418 12.8301 45.9408C12.1625 48.0356 10.5999 49.7284 8.52742 50.5506L8.10413 50.7183C7.40222 50.9967 7.05905 51.7913 7.33727 52.4931C7.55001 53.0297 8.06435 53.3565 8.60835 53.3565C8.77611 53.3565 8.9466 53.3253 9.11203 53.2598L9.53572 53.0918C12.195 52.0367 14.2446 49.9371 15.2463 47.3177C15.7715 47.5909 16.3026 47.8508 16.8398 48.0974C16.6831 50.4418 15.3277 52.5344 13.2235 53.6322L13.142 53.6748C12.4725 54.0238 12.2127 54.8494 12.5616 55.519C12.8054 55.9867 13.2817 56.2544 13.7748 56.2544C13.9877 56.2544 14.2039 56.2045 14.4057 56.0992L14.4876 56.0565C17.1722 54.6559 18.9881 52.1028 19.464 49.1794C20.0438 49.392 20.629 49.5903 21.2198 49.7731C21.1415 51.9416 20.3007 54.0026 18.8287 55.6085C18.3184 56.1651 18.356 57.0297 18.9128 57.5401C19.1753 57.7807 19.5061 57.8994 19.836 57.8994C20.206 57.8994 20.5747 57.7501 20.8442 57.456C22.6158 55.5232 23.6847 53.0832 23.9139 50.4948C24.6997 50.6728 25.4933 50.8236 26.2934 50.9495C26.1162 53.0497 25.4717 55.092 24.3996 56.9166L24.2155 57.2299C23.8331 57.8809 24.0509 58.7186 24.702 59.1011C24.9195 59.2288 25.1578 59.2897 25.3932 59.2897C25.8622 59.2897 26.3186 59.0481 26.5733 58.6146L26.7572 58.3016C28.0207 56.1513 28.7869 53.7475 29.0097 51.274C29.5637 51.3194 30.1202 51.352 30.6788 51.3725V59.4948C30.6788 60.2497 31.2909 60.8618 32.0459 60.8618C32.8008 60.8618 33.4129 60.2496 33.4129 59.4948V51.3725C33.9717 51.352 34.528 51.3194 35.082 51.274C35.3048 53.7472 36.0709 56.1513 37.3344 58.3013L37.5185 58.6146C37.7732 59.0482 38.2297 59.2897 38.6985 59.2897C38.9338 59.2897 39.1722 59.2288 39.3897 59.1011C40.0408 58.7186 40.2585 57.8809 39.8762 57.2299L39.692 56.9164C38.62 55.092 37.9755 53.0494 37.7983 50.9495C38.5984 50.8235 39.3921 50.6728 40.1778 50.4948C40.4069 53.083 41.4759 55.5232 43.2476 57.456C43.5172 57.7501 43.8858 57.8994 44.2557 57.8994C44.5858 57.8994 44.9166 57.7806 45.179 57.5401C45.7356 57.0298 45.7733 56.1651 45.2631 55.6085C43.7912 54.0026 42.9502 51.9413 42.872 49.7731C43.4628 49.5903 44.0479 49.3922 44.6277 49.1794C45.1037 52.1029 46.9197 54.656 49.6046 56.0567L49.6861 56.0992C49.888 56.2045 50.104 56.2544 50.3169 56.2544C50.8102 56.2544 51.2864 55.9865 51.5301 55.519C51.8792 54.8494 51.6194 54.0237 50.9498 53.6748L50.8687 53.6324C48.764 52.5345 47.4086 50.4418 47.2519 48.0974C47.7892 47.8508 48.3204 47.5909 48.8454 47.3177C49.847 49.9371 51.8966 52.0367 54.5562 53.0919L54.9797 53.26C55.1451 53.3254 55.3156 53.3566 55.4834 53.3566C56.0274 53.3566 56.5417 53.0294 56.7545 52.4932C57.0328 51.7913 56.6895 50.9968 55.9876 50.7185L55.5643 50.5506C53.4917 49.7282 51.929 48.0355 51.2615 45.9407C51.7421 45.6417 52.2161 45.3308 52.6836 45.0085C54.0268 46.8529 55.9238 48.2186 58.1277 48.9024L58.1813 48.919C58.3157 48.9605 58.4516 48.9802 58.5851 48.9802C59.1689 48.9802 59.7095 48.6032 59.8908 48.0162C60.1139 47.2949 59.7099 46.5295 58.9883 46.3067Z" fill="#C41D54"/>
</g>
<defs>
<clipPath id="clip0">
<rect width="70" height="70" fill="white"/>
</clipPath>
</defs>
</svg>
