<svg width="70" height="70" viewBox="0 0 70 70" fill="none" xmlns="http://www.w3.org/2000/svg">
<g clip-path="url(#clip0)">
<path d="M69.7629 33.2108L58.7857 17.088C56.4901 13.7165 53.0826 11.1876 49.1906 9.96711C45.2985 8.74689 41.0572 8.87705 37.2475 10.3343L27.2242 14.1681C26.5189 14.4378 26.166 15.2281 26.4356 15.9333C26.7054 16.6385 27.4957 16.9911 28.2009 16.7219L38.2242 12.8881C44.9484 10.3167 52.4739 12.6762 56.5256 18.6269L63.2679 28.5295L51.1683 20.0076C48.6324 18.2215 45.3656 17.7529 42.4296 18.7542L6.02357 31.1701C4.75645 31.6029 3.36356 30.9263 2.91922 29.6632C2.35047 28.0465 3.15889 26.3001 4.75973 25.6879L17.2865 20.8966C17.9918 20.6268 18.3447 19.8366 18.0751 19.1314C17.8052 18.4261 17.0147 18.0735 16.3098 18.3428L3.78288 23.1343C0.788313 24.2796 -0.723939 27.5459 0.339737 30.5704C1.27955 33.2423 4.22503 34.6726 6.90609 33.7579L43.3124 21.3422C45.4226 20.6223 47.7709 20.9592 49.5941 22.2431L67.846 35.098C68.0836 35.2654 68.3588 35.3474 68.6328 35.3474C68.9817 35.3474 69.3284 35.2142 69.5922 34.9546C70.0627 34.491 70.1348 33.757 69.7629 33.2108Z" fill="#FF7474"/>
<path d="M23.5618 16.4362C23.3075 16.1806 22.9548 16.0356 22.5953 16.0356C22.2358 16.0356 21.883 16.1806 21.6289 16.4362C21.3746 16.6905 21.2283 17.042 21.2283 17.4027C21.2283 17.7623 21.3746 18.115 21.6289 18.3692C21.8832 18.6235 22.2359 18.7698 22.5953 18.7698C22.9549 18.7698 23.3076 18.6235 23.5618 18.3692C23.8161 18.1149 23.9624 17.7621 23.9624 17.4027C23.9624 17.0418 23.8161 16.6905 23.5618 16.4362Z" fill="#FF7474"/>
<path d="M58.9882 46.3067L58.9364 46.2907C57.2906 45.7799 55.874 44.7567 54.875 43.3743C55.9008 42.5477 56.8898 41.6634 57.8346 40.7187C58.3685 40.1848 58.3685 39.3192 57.8346 38.7852C57.3008 38.2514 56.4351 38.2514 55.9012 38.7852C50.5396 44.1469 43.6911 47.481 36.2855 48.4037C36.2359 48.4071 36.187 48.4128 36.1389 48.4213C34.7915 48.5833 33.4262 48.6663 32.0481 48.6665C32.0474 48.6665 32.0467 48.6663 32.0459 48.6663C32.0451 48.6663 32.0445 48.6665 32.0437 48.6665C30.6656 48.6665 29.3003 48.5833 27.9528 48.4213C27.9047 48.4127 27.8558 48.407 27.8061 48.4037C20.4005 47.481 13.552 44.1469 8.19042 38.7852C7.65653 38.2516 6.79096 38.2514 6.25707 38.7852C5.72318 39.3191 5.72318 40.1847 6.25707 40.7187C7.2018 41.6634 8.19083 42.5479 9.21663 43.3743C8.21776 44.7567 6.80149 45.78 5.15703 46.2901L5.10343 46.3067C4.38196 46.5295 3.97782 47.2949 4.20067 48.0164C4.38196 48.6034 4.92269 48.9804 5.50634 48.9804C5.64006 48.9804 5.77595 48.9605 5.91021 48.9191L5.96558 48.902C8.16786 48.2186 10.0647 46.8529 11.4078 45.0087C11.8754 45.3309 12.3494 45.6418 12.83 45.9408C12.1624 48.0356 10.5998 49.7284 8.52729 50.5506L8.10401 50.7183C7.40209 50.9967 7.05893 51.7913 7.33715 52.4931C7.54989 53.0297 8.06423 53.3565 8.60823 53.3565C8.77599 53.3565 8.94648 53.3253 9.11191 53.2598L9.5356 53.0918C12.1949 52.0367 14.2445 49.9371 15.2462 47.3177C15.7714 47.5909 16.3025 47.8508 16.8397 48.0974C16.683 50.4418 15.3276 52.5344 13.2233 53.6322L13.1418 53.6748C12.4723 54.0238 12.2126 54.8494 12.5615 55.519C12.8052 55.9867 13.2816 56.2544 13.7747 56.2544C13.9876 56.2544 14.2037 56.2045 14.4055 56.0992L14.4874 56.0565C17.1721 54.6559 18.988 52.1028 19.4639 49.1794C20.0437 49.392 20.6289 49.5903 21.2196 49.7731C21.1414 51.9416 20.3006 54.0026 18.8285 55.6085C18.3183 56.1651 18.3559 57.0297 18.9126 57.5401C19.1751 57.7807 19.506 57.8994 19.8359 57.8994C20.2059 57.8994 20.5746 57.7501 20.8441 57.456C22.6157 55.5232 23.6845 53.0832 23.9138 50.4948C24.6995 50.6728 25.4932 50.8236 26.2933 50.9495C26.1161 53.0497 25.4716 55.092 24.3994 56.9166L24.2154 57.2299C23.833 57.8809 24.0508 58.7186 24.7019 59.1011C24.9194 59.2288 25.1577 59.2897 25.3931 59.2897C25.8621 59.2897 26.3184 59.0481 26.5731 58.6146L26.757 58.3016C28.0206 56.1513 28.7868 53.7475 29.0096 51.274C29.5636 51.3194 30.1201 51.352 30.6787 51.3725V59.4948C30.6787 60.2497 31.2908 60.8618 32.0457 60.8618C32.8007 60.8618 33.4128 60.2496 33.4128 59.4948V51.3725C33.9716 51.352 34.5279 51.3194 35.0819 51.274C35.3047 53.7472 36.0708 56.1513 37.3343 58.3013L37.5183 58.6146C37.7731 59.0482 38.2296 59.2897 38.6984 59.2897C38.9337 59.2897 39.1721 59.2288 39.3896 59.1011C40.0407 58.7186 40.2583 57.8809 39.8761 57.2299L39.6919 56.9164C38.6199 55.092 37.9754 53.0494 37.7982 50.9495C38.5983 50.8235 39.3919 50.6728 40.1777 50.4948C40.4068 53.083 41.4758 55.5232 43.2474 57.456C43.517 57.7501 43.8856 57.8994 44.2556 57.8994C44.5856 57.8994 44.9165 57.7806 45.1789 57.5401C45.7355 57.0298 45.7732 56.1651 45.263 55.6085C43.791 54.0026 42.9501 51.9413 42.8719 49.7731C43.4626 49.5903 44.0478 49.3922 44.6276 49.1794C45.1035 52.1029 46.9196 54.656 49.6045 56.0567L49.686 56.0992C49.8879 56.2045 50.1039 56.2544 50.3168 56.2544C50.8101 56.2544 51.2863 55.9865 51.53 55.519C51.8791 54.8494 51.6193 54.0237 50.9496 53.6748L50.8686 53.6324C48.7639 52.5345 47.4085 50.4418 47.2518 48.0974C47.7891 47.8508 48.3203 47.5909 48.8453 47.3177C49.8469 49.9371 51.8964 52.0367 54.556 53.0919L54.9796 53.26C55.145 53.3254 55.3155 53.3566 55.4833 53.3566C56.0273 53.3566 56.5416 53.0294 56.7543 52.4932C57.0327 51.7913 56.6894 50.9968 55.9875 50.7185L55.5642 50.5506C53.4915 49.7282 51.9288 48.0355 51.2614 45.9407C51.7419 45.6417 52.2159 45.3308 52.6835 45.0085C54.0267 46.8529 55.9236 48.2186 58.1276 48.9024L58.1811 48.919C58.3155 48.9605 58.4514 48.9802 58.585 48.9802C59.1688 48.9802 59.7094 48.6032 59.8907 48.0162C60.1138 47.2949 59.7098 46.5295 58.9882 46.3067Z" fill="#FF7474"/>
</g>
<defs>
<clipPath id="clip0">
<rect width="70" height="70" fill="white"/>
</clipPath>
</defs>
</svg>
