<svg width="70" height="70" viewBox="0 0 70 70" fill="none" xmlns="http://www.w3.org/2000/svg">
<g clip-path="url(#clip0)">
<path d="M57.5198 40.6693C57.349 39.311 56.5882 38.7304 55.9796 38.4825C55.0501 38.1035 53.3222 37.9224 48.9973 40.477C49.3906 38.8471 49.2357 37.0928 48.4783 35.5176C49.9692 33.6565 51.6697 31.0979 51.4322 29.1984C51.2604 27.8237 50.4926 27.2377 49.8784 26.9882C46.3753 25.5638 38.4184 31.9564 35.4584 34.3226C35.5555 33.2984 35.4196 32.2481 35.0332 31.2564C36.487 29.4775 38.2609 26.908 38.0241 25.0133C37.8498 23.6185 37.0083 23.0788 36.5221 22.8811C34.5414 22.0759 31.3298 23.8476 29.0866 25.2503C25.7056 27.3644 25.7931 27.4541 2.47365 46.1661C0.90166 47.4278 0 49.3075 0 51.3231C0 53.5354 0 63.688 0 65.9354C0 68.1766 1.82342 70 4.06465 70H6.26172C6.82814 70 7.28711 69.5411 7.28711 68.9746C7.28711 68.4082 6.82814 67.9492 6.26172 67.9492H4.06465C2.95436 67.9492 2.05092 67.0459 2.05092 65.9355V63.7605L30.6649 40.7999C31.5446 45.7423 37.074 45.9755 40.2389 43.6554C42.2249 42.1977 45.1128 39.3448 46.9634 37.2898C47.5258 39.315 46.8575 41.5555 45.1474 42.9277C45.1289 42.9424 40.8754 46.3553 13.9571 67.9492H11.0471C10.4807 67.9492 10.0218 68.4082 10.0218 68.9746C10.0218 69.5411 10.4807 70 11.0471 70C15.7906 70 28.0334 70 32.7765 70C34.6734 70 36.5329 69.3462 38.0123 68.159L45.2067 62.3857C45.6483 62.0312 45.7192 61.3859 45.3646 60.944C45.0101 60.5024 44.3648 60.4318 43.923 60.7861L36.7287 66.5594C35.6118 67.4556 34.2081 67.9491 32.7764 67.9491H17.2423L36.935 52.1472C37.1153 53.1259 37.4456 53.8656 37.8153 54.3904C39.3576 56.5856 42.9691 56.8667 45.5715 55.4689C47.1424 54.6242 50.1014 51.7624 51.3378 50.5102C51.9158 52.6037 51.22 54.931 49.4639 56.3402L47.6554 57.7914C47.2138 58.146 47.1431 58.7913 47.4975 59.2331C47.8518 59.6746 48.4971 59.7453 48.9392 59.3911L50.7475 57.9398C53.4656 55.7587 54.3263 51.9696 52.9099 48.8529C54.1502 47.4889 57.8627 43.3969 57.5198 40.6693ZM30.1883 26.9804C34.3049 24.4087 35.5436 24.697 35.7499 24.7812C35.8061 24.8041 35.9376 24.8575 35.9889 25.2678C36.3166 27.8867 28.2138 35.749 26.0006 37.2132C24.1079 38.4355 21.6613 38.1208 20.8687 37.0445C20.2907 36.2602 20.2804 35.0995 20.2319 34.5461C24.5524 31.0862 26.9526 29.0016 30.1883 26.9804ZM30.9273 37.9586C29.2098 39.3343 3.68525 59.7778 2.05092 61.0868V51.3231C2.05092 49.9326 2.67285 48.6362 3.7573 47.7659L18.327 36.0748C18.7078 38.0687 19.6947 39.1129 21.1462 39.6755C22.499 40.1998 24.1784 40.2372 25.7737 39.6256C27.9843 38.7777 31.821 34.8513 33.4057 33.1218C33.7944 36.3075 31.1515 37.6837 30.9273 37.9586ZM39.0413 41.9903C36.9584 43.5251 34.0065 43.2472 33.143 41.7856C32.7309 41.0887 32.588 40.0689 32.5806 39.2626C36.9917 35.7131 39.7354 33.3613 43.1575 31.2234C47.5453 28.4822 48.8826 28.7974 49.1064 28.8881C49.1817 28.9188 49.3384 28.9826 49.3972 29.4527C49.751 32.2831 41.3931 40.2618 39.0413 41.9903ZM44.9678 53.4442C43.2674 54.5375 40.3755 54.66 39.4145 53.0894C38.9769 52.3682 38.8579 51.2991 38.8463 50.6133C44.3796 46.1928 46.0507 44.7094 49.3194 42.6792C53.6646 39.9804 54.9853 40.2916 55.2059 40.3817C55.278 40.4111 55.4282 40.4723 55.4851 40.9251C55.8396 43.7488 47.129 52.0442 44.9678 53.4442Z" fill="#C41D54"/>
<path d="M68.9747 5.53055C69.5411 5.53055 70 5.07158 70 4.50516V2.75557C70 1.23621 68.7638 0 67.2445 0H57.7267C56.2072 0 54.9711 1.23621 54.9711 2.75557V9.26912C54.9711 10.6438 55.8944 11.8671 57.2163 12.244L59.3696 12.858V21.3462C59.3696 21.9689 59.5625 22.5474 59.8912 23.0255C59.7508 25.4319 59.0084 30.5182 55.3575 33.5655C54.3626 34.3957 54.3749 35.9341 55.3789 36.7613C57.143 38.0609 57.7063 39.1081 59.1719 39.1081C60.1648 39.1081 61.0804 38.5608 61.5358 37.654C62.632 35.47 64.4705 30.7202 64.6265 23.2441C65.0551 22.7289 65.3133 22.0671 65.3133 21.3462V14.5529C65.7895 14.5873 67.3294 15.562 68.8736 14.3968C69.5895 13.8566 70.0002 13.0322 70.0002 12.1353V9.29059C70.0002 8.7243 69.5412 8.2652 68.9748 8.2652C68.4084 8.2652 67.9494 8.72416 67.9494 9.29059V12.1353C67.9494 12.383 67.8361 12.6107 67.6384 12.7597C67.1171 13.1536 66.7509 12.7405 64.5694 12.2079C63.24 11.8288 59.1387 10.6593 57.7789 10.2715C57.3333 10.1445 57.0223 9.73232 57.0223 9.26912V2.75557C57.0223 2.37357 57.3449 2.05092 57.7269 2.05092H67.2448C67.6267 2.05092 67.9494 2.37357 67.9494 2.75557V4.50516C67.9491 5.07158 68.4081 5.53055 68.9747 5.53055ZM59.7027 36.7339C59.5333 37.0709 59.0919 37.163 58.7976 36.9204L56.6827 35.1783C56.6634 35.1624 56.6702 35.1407 56.6713 35.14C59.8458 32.4905 61.3963 28.3873 61.8441 24.2771C62.0727 24.3153 62.3147 24.3266 62.5405 24.3115C62.2497 30.7416 60.6668 34.8134 59.7027 36.7339ZM61.4201 13.4429L63.2623 13.9681V21.3462C63.2623 21.6234 63.1385 21.872 62.944 22.0408C62.333 22.5608 61.4201 22.123 61.4201 21.3462V13.4429Z" fill="#C41D54"/>
</g>
<defs>
<clipPath id="clip0">
<rect width="70" height="70" fill="white"/>
</clipPath>
</defs>
</svg>
