<svg width="70" height="70" viewBox="0 0 70 70" fill="none" xmlns="http://www.w3.org/2000/svg">
<path d="M33.6107 2.5334C33.5084 2.42421 33.3847 2.33718 33.2474 2.27769C33.1102 2.21819 32.9621 2.18749 32.8125 2.1875H8.75C8.60036 2.1875 8.45232 2.2182 8.31503 2.27771C8.17774 2.33722 8.05412 2.42426 7.95181 2.53346C7.84951 2.64266 7.7707 2.77169 7.72026 2.91256C7.66982 3.05344 7.64883 3.20316 7.65857 3.35248L10.9375 53.6292V62.3438C10.9391 63.7937 11.5158 65.1837 12.5411 66.2089C13.5663 67.2342 14.9563 67.8109 16.4062 67.8125H56.875C58.3249 67.8109 59.715 67.2342 60.7402 66.2089C61.7654 65.1837 62.3421 63.7937 62.3438 62.3438V47.0312C62.3426 45.9676 62.0317 44.9273 61.449 44.0375C60.8662 43.1476 60.037 42.4468 59.0625 42.0205V38.2812C59.0625 34.6068 57.6125 31.3698 54.8691 28.9204C53.6375 27.8113 52.2194 26.9288 50.6804 26.3137C50.4216 26.2109 50.1326 26.2146 49.8764 26.324C49.6203 26.4334 49.4179 26.6397 49.3132 26.8978C49.2594 26.9996 48.748 27.9057 47.1732 28.8098C45.5859 29.721 42.5888 30.8072 37.3256 30.8072C35.3126 30.8072 33.5619 31.0119 32.0734 31.4211L33.9039 3.35275C33.9137 3.20338 33.8927 3.05359 33.8423 2.91265C33.7918 2.77172 33.713 2.64263 33.6107 2.5334ZM31.6451 4.375L31.5025 6.5625H10.06L9.91744 4.375H31.6451ZM25.1562 61.25V48.125H60.1562V61.25H25.1562ZM18.5937 61.25V60.1562C18.5941 59.8663 18.7094 59.5883 18.9145 59.3832C19.1195 59.1782 19.3975 59.0628 19.6875 59.0625H21.875C22.165 59.0628 22.443 59.1782 22.648 59.3832C22.8531 59.5883 22.9684 59.8663 22.9687 60.1562V61.25H18.5937ZM22.9687 57.0631C22.6176 56.9385 22.2476 56.8749 21.875 56.875H19.6875C18.8176 56.876 17.9835 57.222 17.3684 57.8371C16.7532 58.4523 16.4072 59.2863 16.4062 60.1562V61.25H13.125V54.6875H22.9687V57.0631ZM13.3131 63.4375H23.0788C23.241 64.2309 23.5781 64.9783 24.0655 65.625H16.4062C15.728 65.6241 15.0666 65.4134 14.5128 65.0218C13.959 64.6301 13.5399 64.0767 13.3131 63.4375ZM56.875 65.625H28.4375C27.7592 65.6241 27.0978 65.4134 26.544 65.0218C25.9902 64.6301 25.5712 64.0767 25.3444 63.4375H59.9681C59.7413 64.0767 59.3223 64.6301 58.7685 65.0218C58.2147 65.4134 57.5533 65.6241 56.875 65.625ZM59.9681 45.9375H25.3444C25.5712 45.2983 25.9902 44.7449 26.544 44.3532C27.0978 43.9616 27.7592 43.7509 28.4375 43.75H56.875C57.5533 43.7509 58.2147 43.9616 58.7685 44.3532C59.3223 44.7449 59.7413 45.2983 59.9681 45.9375ZM28.4375 41.5625V39.375H56.875V41.5625H28.4375ZM48.5167 30.5566C49.3439 30.0699 50.0834 29.4474 50.7042 28.7155C51.7058 29.2193 52.6358 29.8545 53.4696 30.6041C55.4538 32.3992 56.5785 34.6099 56.8233 37.1876H28.4974C28.6243 36.5167 28.9291 35.8923 29.38 35.3795C30.7336 33.8194 33.4816 32.9949 37.3256 32.9949C42.0957 32.9947 45.8604 32.1744 48.5167 30.5566ZM27.6808 34C26.698 35.1485 26.1899 36.6283 26.2598 38.1382C26.2534 38.1856 26.2502 38.2334 26.25 38.2812V42.0205C25.2755 42.4468 24.4463 43.1476 23.8635 44.0375C23.2808 44.9273 22.9699 45.9676 22.9687 47.0312V52.5H13.0566L10.2026 8.75H31.3599L29.8238 32.3016C29.0091 32.7278 28.2822 33.304 27.6813 33.9999L27.6808 34Z" fill="#FF7474"/>
<path d="M48.5008 51.362C46.9219 50.6853 44.8461 50.3125 42.6562 50.3125C40.4664 50.3125 38.3906 50.6853 36.8117 51.362C34.2837 52.4453 33.9062 53.9105 33.9062 54.6875C33.9062 55.4645 34.2837 56.9297 36.8117 58.013C38.3906 58.6897 40.4664 59.0625 42.6562 59.0625C44.8461 59.0625 46.9219 58.6897 48.5008 58.013C51.0288 56.9297 51.4062 55.4645 51.4062 54.6875C51.4062 53.9105 51.0288 52.4453 48.5008 51.362ZM42.6562 56.875C38.5853 56.875 36.0938 55.4587 36.0938 54.6875C36.0938 53.9163 38.5853 52.5 42.6562 52.5C46.7272 52.5 49.2188 53.9163 49.2188 54.6875C49.2188 55.4587 46.7272 56.875 42.6562 56.875Z" fill="#FF7474"/>
<path d="M27.3438 10.9375H14.2188C13.9287 10.9375 13.6505 11.0527 13.4454 11.2579C13.2402 11.463 13.125 11.7412 13.125 12.0312V18.5938C13.125 18.8838 13.2402 19.162 13.4454 19.3671C13.6505 19.5723 13.9287 19.6875 14.2188 19.6875H27.3438C27.6338 19.6875 27.912 19.5723 28.1171 19.3671C28.3223 19.162 28.4375 18.8838 28.4375 18.5938V12.0312C28.4375 11.7412 28.3223 11.463 28.1171 11.2579C27.912 11.0527 27.6338 10.9375 27.3438 10.9375ZM26.25 17.5H15.3125V13.125H26.25V17.5Z" fill="#FF7474"/>
<path d="M25.1562 21.875H16.4062C16.1162 21.875 15.838 21.9902 15.6329 22.1954C15.4277 22.4005 15.3125 22.6787 15.3125 22.9688C15.3125 23.2588 15.4277 23.537 15.6329 23.7421C15.838 23.9473 16.1162 24.0625 16.4062 24.0625H25.1562C25.4463 24.0625 25.7245 23.9473 25.9296 23.7421C26.1348 23.537 26.25 23.2588 26.25 22.9688C26.25 22.6787 26.1348 22.4005 25.9296 22.1954C25.7245 21.9902 25.4463 21.875 25.1562 21.875Z" fill="#FF7474"/>
</svg>
