<svg width="128" height="161" viewBox="0 0 128 161" fill="none" xmlns="http://www.w3.org/2000/svg">
<circle cx="4" cy="4" r="4" fill="#F8E0D4" fill-opacity="0.8"/>
<circle cx="4" cy="63" r="4" fill="#F8E0D4" fill-opacity="0.8"/>
<circle cx="4" cy="16" r="4" fill="#F8E0D4" fill-opacity="0.8"/>
<circle cx="4" cy="75" r="4" fill="#F8E0D4" fill-opacity="0.8"/>
<circle cx="4" cy="122" r="4" fill="#F8E0D4" fill-opacity="0.8"/>
<circle cx="4" cy="28" r="4" fill="#F8E0D4" fill-opacity="0.8"/>
<circle cx="4" cy="87" r="4" fill="#F8E0D4" fill-opacity="0.8"/>
<circle cx="4" cy="134" r="4" fill="#F8E0D4" fill-opacity="0.8"/>
<circle cx="4" cy="39" r="4" fill="#F8E0D4" fill-opacity="0.8"/>
<circle cx="4" cy="98" r="4" fill="#F8E0D4" fill-opacity="0.8"/>
<circle cx="4" cy="145" r="4" fill="#F8E0D4" fill-opacity="0.8"/>
<circle cx="4" cy="51" r="4" fill="#F8E0D4" fill-opacity="0.8"/>
<circle cx="4" cy="110" r="4" fill="#F8E0D4" fill-opacity="0.8"/>
<circle cx="4" cy="157" r="4" fill="#F8E0D4" fill-opacity="0.8"/>
<circle cx="52" cy="4" r="4" fill="#F8E0D4" fill-opacity="0.8"/>
<circle cx="52" cy="63" r="4" fill="#F8E0D4" fill-opacity="0.8"/>
<circle cx="52" cy="16" r="4" fill="#F8E0D4" fill-opacity="0.8"/>
<circle cx="52" cy="75" r="4" fill="#F8E0D4" fill-opacity="0.8"/>
<circle cx="52" cy="122" r="4" fill="#F8E0D4" fill-opacity="0.8"/>
<circle cx="52" cy="28" r="4" fill="#F8E0D4" fill-opacity="0.8"/>
<circle cx="52" cy="87" r="4" fill="#F8E0D4" fill-opacity="0.8"/>
<circle cx="52" cy="134" r="4" fill="#F8E0D4" fill-opacity="0.8"/>
<circle cx="52" cy="39" r="4" fill="#F8E0D4" fill-opacity="0.8"/>
<circle cx="52" cy="98" r="4" fill="#F8E0D4" fill-opacity="0.8"/>
<circle cx="52" cy="145" r="4" fill="#F8E0D4" fill-opacity="0.8"/>
<circle cx="52" cy="51" r="4" fill="#F8E0D4" fill-opacity="0.8"/>
<circle cx="52" cy="110" r="4" fill="#F8E0D4" fill-opacity="0.8"/>
<circle cx="52" cy="157" r="4" fill="#F8E0D4" fill-opacity="0.8"/>
<circle cx="16" cy="4" r="4" fill="#F8E0D4" fill-opacity="0.8"/>
<circle cx="16" cy="63" r="4" fill="#F8E0D4" fill-opacity="0.8"/>
<circle cx="16" cy="16" r="4" fill="#F8E0D4" fill-opacity="0.8"/>
<circle cx="16" cy="75" r="4" fill="#F8E0D4" fill-opacity="0.8"/>
<circle cx="16" cy="122" r="4" fill="#F8E0D4" fill-opacity="0.8"/>
<circle cx="16" cy="28" r="4" fill="#F8E0D4" fill-opacity="0.8"/>
<circle cx="16" cy="87" r="4" fill="#F8E0D4" fill-opacity="0.8"/>
<circle cx="16" cy="134" r="4" fill="#F8E0D4" fill-opacity="0.8"/>
<circle cx="16" cy="39" r="4" fill="#F8E0D4" fill-opacity="0.8"/>
<circle cx="16" cy="98" r="4" fill="#F8E0D4" fill-opacity="0.8"/>
<circle cx="16" cy="145" r="4" fill="#F8E0D4" fill-opacity="0.8"/>
<circle cx="16" cy="51" r="4" fill="#F8E0D4" fill-opacity="0.8"/>
<circle cx="16" cy="110" r="4" fill="#F8E0D4" fill-opacity="0.8"/>
<circle cx="16" cy="157" r="4" fill="#F8E0D4" fill-opacity="0.8"/>
<circle cx="64" cy="4" r="4" fill="#F8E0D4" fill-opacity="0.8"/>
<circle cx="64" cy="63" r="4" fill="#F8E0D4" fill-opacity="0.8"/>
<circle cx="64" cy="16" r="4" fill="#F8E0D4" fill-opacity="0.8"/>
<circle cx="64" cy="75" r="4" fill="#F8E0D4" fill-opacity="0.8"/>
<circle cx="64" cy="122" r="4" fill="#F8E0D4" fill-opacity="0.8"/>
<circle cx="64" cy="28" r="4" fill="#F8E0D4" fill-opacity="0.8"/>
<circle cx="64" cy="87" r="4" fill="#F8E0D4" fill-opacity="0.8"/>
<circle cx="64" cy="134" r="4" fill="#F8E0D4" fill-opacity="0.8"/>
<circle cx="64" cy="39" r="4" fill="#F8E0D4" fill-opacity="0.8"/>
<circle cx="64" cy="98" r="4" fill="#F8E0D4" fill-opacity="0.8"/>
<circle cx="64" cy="145" r="4" fill="#F8E0D4" fill-opacity="0.8"/>
<circle cx="64" cy="51" r="4" fill="#F8E0D4" fill-opacity="0.8"/>
<circle cx="64" cy="110" r="4" fill="#F8E0D4" fill-opacity="0.8"/>
<circle cx="64" cy="157" r="4" fill="#F8E0D4" fill-opacity="0.8"/>
<circle cx="40" cy="4" r="4" fill="#F8E0D4" fill-opacity="0.8"/>
<circle cx="40" cy="63" r="4" fill="#F8E0D4" fill-opacity="0.8"/>
<circle cx="40" cy="16" r="4" fill="#F8E0D4" fill-opacity="0.8"/>
<circle cx="40" cy="75" r="4" fill="#F8E0D4" fill-opacity="0.8"/>
<circle cx="40" cy="122" r="4" fill="#F8E0D4" fill-opacity="0.8"/>
<circle cx="40" cy="28" r="4" fill="#F8E0D4" fill-opacity="0.8"/>
<circle cx="40" cy="87" r="4" fill="#F8E0D4" fill-opacity="0.8"/>
<circle cx="40" cy="134" r="4" fill="#F8E0D4" fill-opacity="0.8"/>
<circle cx="40" cy="39" r="4" fill="#F8E0D4" fill-opacity="0.8"/>
<circle cx="40" cy="98" r="4" fill="#F8E0D4" fill-opacity="0.8"/>
<circle cx="40" cy="145" r="4" fill="#F8E0D4" fill-opacity="0.8"/>
<circle cx="40" cy="51" r="4" fill="#F8E0D4" fill-opacity="0.8"/>
<circle cx="40" cy="110" r="4" fill="#F8E0D4" fill-opacity="0.8"/>
<circle cx="40" cy="157" r="4" fill="#F8E0D4" fill-opacity="0.8"/>
<circle cx="88" cy="4" r="4" fill="#F8E0D4" fill-opacity="0.8"/>
<circle cx="88" cy="63" r="4" fill="#F8E0D4" fill-opacity="0.8"/>
<circle cx="88" cy="16" r="4" fill="#F8E0D4" fill-opacity="0.8"/>
<circle cx="88" cy="75" r="4" fill="#F8E0D4" fill-opacity="0.8"/>
<circle cx="88" cy="122" r="4" fill="#F8E0D4" fill-opacity="0.8"/>
<circle cx="88" cy="28" r="4" fill="#F8E0D4" fill-opacity="0.8"/>
<circle cx="88" cy="87" r="4" fill="#F8E0D4" fill-opacity="0.8"/>
<circle cx="88" cy="134" r="4" fill="#F8E0D4" fill-opacity="0.8"/>
<circle cx="88" cy="39" r="4" fill="#F8E0D4" fill-opacity="0.8"/>
<circle cx="88" cy="98" r="4" fill="#F8E0D4" fill-opacity="0.8"/>
<circle cx="88" cy="145" r="4" fill="#F8E0D4" fill-opacity="0.8"/>
<circle cx="88" cy="51" r="4" fill="#F8E0D4" fill-opacity="0.8"/>
<circle cx="88" cy="110" r="4" fill="#F8E0D4" fill-opacity="0.8"/>
<circle cx="88" cy="157" r="4" fill="#F8E0D4" fill-opacity="0.8"/>
<circle cx="28" cy="4" r="4" fill="#F8E0D4" fill-opacity="0.8"/>
<circle cx="28" cy="63" r="4" fill="#F8E0D4" fill-opacity="0.8"/>
<circle cx="28" cy="16" r="4" fill="#F8E0D4" fill-opacity="0.8"/>
<circle cx="28" cy="75" r="4" fill="#F8E0D4" fill-opacity="0.8"/>
<circle cx="28" cy="122" r="4" fill="#F8E0D4" fill-opacity="0.8"/>
<circle cx="28" cy="28" r="4" fill="#F8E0D4" fill-opacity="0.8"/>
<circle cx="28" cy="87" r="4" fill="#F8E0D4" fill-opacity="0.8"/>
<circle cx="28" cy="134" r="4" fill="#F8E0D4" fill-opacity="0.8"/>
<circle cx="28" cy="39" r="4" fill="#F8E0D4" fill-opacity="0.8"/>
<circle cx="28" cy="98" r="4" fill="#F8E0D4" fill-opacity="0.8"/>
<circle cx="28" cy="145" r="4" fill="#F8E0D4" fill-opacity="0.8"/>
<circle cx="28" cy="51" r="4" fill="#F8E0D4" fill-opacity="0.8"/>
<circle cx="28" cy="110" r="4" fill="#F8E0D4" fill-opacity="0.8"/>
<circle cx="28" cy="157" r="4" fill="#F8E0D4" fill-opacity="0.8"/>
<circle cx="76" cy="4" r="4" fill="#F8E0D4" fill-opacity="0.8"/>
<circle cx="76" cy="63" r="4" fill="#F8E0D4" fill-opacity="0.8"/>
<circle cx="76" cy="16" r="4" fill="#F8E0D4" fill-opacity="0.8"/>
<circle cx="76" cy="75" r="4" fill="#F8E0D4" fill-opacity="0.8"/>
<circle cx="76" cy="122" r="4" fill="#F8E0D4" fill-opacity="0.8"/>
<circle cx="76" cy="28" r="4" fill="#F8E0D4" fill-opacity="0.8"/>
<circle cx="76" cy="87" r="4" fill="#F8E0D4" fill-opacity="0.8"/>
<circle cx="76" cy="134" r="4" fill="#F8E0D4" fill-opacity="0.8"/>
<circle cx="76" cy="39" r="4" fill="#F8E0D4" fill-opacity="0.8"/>
<circle cx="76" cy="98" r="4" fill="#F8E0D4" fill-opacity="0.8"/>
<circle cx="76" cy="145" r="4" fill="#F8E0D4" fill-opacity="0.8"/>
<circle cx="76" cy="51" r="4" fill="#F8E0D4" fill-opacity="0.8"/>
<circle cx="76" cy="110" r="4" fill="#F8E0D4" fill-opacity="0.8"/>
<circle cx="76" cy="157" r="4" fill="#F8E0D4" fill-opacity="0.8"/>
<circle cx="112" cy="4" r="4" fill="#F8E0D4" fill-opacity="0.8"/>
<circle cx="112" cy="63" r="4" fill="#F8E0D4" fill-opacity="0.8"/>
<circle cx="112" cy="16" r="4" fill="#F8E0D4" fill-opacity="0.8"/>
<circle cx="112" cy="75" r="4" fill="#F8E0D4" fill-opacity="0.8"/>
<circle cx="112" cy="122" r="4" fill="#F8E0D4" fill-opacity="0.8"/>
<circle cx="112" cy="28" r="4" fill="#F8E0D4" fill-opacity="0.8"/>
<circle cx="112" cy="87" r="4" fill="#F8E0D4" fill-opacity="0.8"/>
<circle cx="112" cy="134" r="4" fill="#F8E0D4" fill-opacity="0.8"/>
<circle cx="112" cy="39" r="4" fill="#F8E0D4" fill-opacity="0.8"/>
<circle cx="112" cy="98" r="4" fill="#F8E0D4" fill-opacity="0.8"/>
<circle cx="112" cy="145" r="4" fill="#F8E0D4" fill-opacity="0.8"/>
<circle cx="112" cy="51" r="4" fill="#F8E0D4" fill-opacity="0.8"/>
<circle cx="112" cy="110" r="4" fill="#F8E0D4" fill-opacity="0.8"/>
<circle cx="112" cy="157" r="4" fill="#F8E0D4" fill-opacity="0.8"/>
<circle cx="100" cy="4" r="4" fill="#F8E0D4" fill-opacity="0.8"/>
<circle cx="100" cy="63" r="4" fill="#F8E0D4" fill-opacity="0.8"/>
<circle cx="100" cy="16" r="4" fill="#F8E0D4" fill-opacity="0.8"/>
<circle cx="100" cy="75" r="4" fill="#F8E0D4" fill-opacity="0.8"/>
<circle cx="100" cy="122" r="4" fill="#F8E0D4" fill-opacity="0.8"/>
<circle cx="100" cy="28" r="4" fill="#F8E0D4" fill-opacity="0.8"/>
<circle cx="100" cy="87" r="4" fill="#F8E0D4" fill-opacity="0.8"/>
<circle cx="100" cy="134" r="4" fill="#F8E0D4" fill-opacity="0.8"/>
<circle cx="100" cy="39" r="4" fill="#F8E0D4" fill-opacity="0.8"/>
<circle cx="100" cy="98" r="4" fill="#F8E0D4" fill-opacity="0.8"/>
<circle cx="100" cy="145" r="4" fill="#F8E0D4" fill-opacity="0.8"/>
<circle cx="100" cy="51" r="4" fill="#F8E0D4" fill-opacity="0.8"/>
<circle cx="100" cy="110" r="4" fill="#F8E0D4" fill-opacity="0.8"/>
<circle cx="100" cy="157" r="4" fill="#F8E0D4" fill-opacity="0.8"/>
<circle cx="124" cy="4" r="4" fill="#F8E0D4" fill-opacity="0.8"/>
<circle cx="124" cy="63" r="4" fill="#F8E0D4" fill-opacity="0.8"/>
<circle cx="124" cy="16" r="4" fill="#F8E0D4" fill-opacity="0.8"/>
<circle cx="124" cy="75" r="4" fill="#F8E0D4" fill-opacity="0.8"/>
<circle cx="124" cy="122" r="4" fill="#F8E0D4" fill-opacity="0.8"/>
<circle cx="124" cy="28" r="4" fill="#F8E0D4" fill-opacity="0.8"/>
<circle cx="124" cy="87" r="4" fill="#F8E0D4" fill-opacity="0.8"/>
<circle cx="124" cy="134" r="4" fill="#F8E0D4" fill-opacity="0.8"/>
<circle cx="124" cy="39" r="4" fill="#F8E0D4" fill-opacity="0.8"/>
<circle cx="124" cy="98" r="4" fill="#F8E0D4" fill-opacity="0.8"/>
<circle cx="124" cy="145" r="4" fill="#F8E0D4" fill-opacity="0.8"/>
<circle cx="124" cy="51" r="4" fill="#F8E0D4" fill-opacity="0.8"/>
<circle cx="124" cy="110" r="4" fill="#F8E0D4" fill-opacity="0.8"/>
<circle cx="124" cy="157" r="4" fill="#F8E0D4" fill-opacity="0.8"/>
</svg>
