<svg width="399" height="410" viewBox="0 0 399 410" fill="none" xmlns="http://www.w3.org/2000/svg">
<path d="M134.779 218.525V409.971H0.0195312V135.452C0.0207216 128.877 2.58757 122.485 7.32546 117.258C12.0634 112.031 18.7099 108.258 26.2433 106.52C33.7767 104.782 41.7799 105.174 49.0223 107.638C56.2646 110.101 62.3453 114.498 66.3293 120.153C66.383 120.198 66.383 120.244 66.4366 120.283L134.779 218.525Z" fill="url(#paint0_linear)"/>
<path d="M398.996 0V274.79C398.998 281.382 396.422 287.791 391.666 293.027C386.909 298.263 380.236 302.035 372.678 303.761C365.12 305.487 357.098 305.071 349.849 302.576C342.6 300.082 336.529 295.648 332.573 289.959L264.237 191.655V0H398.996Z" fill="url(#paint1_linear)"/>
<path d="M398.998 274.79V410H268.036L174.453 275.508C174.453 275.462 174.399 275.462 174.399 275.417L174.345 275.372L134.76 218.525L66.4171 120.312C66.3634 120.272 66.3633 120.227 66.3096 120.182C62.3256 114.527 56.2451 110.129 49.0027 107.666C41.7603 105.203 33.7572 104.81 26.2238 106.548C18.6904 108.286 12.0438 112.059 7.30593 117.286C2.56804 122.513 0.00119039 128.906 0 135.481V0H130.962L240.742 157.946C240.831 158.006 240.904 158.081 240.957 158.166L258.335 183.195L258.388 183.241C258.442 183.286 258.442 183.376 258.496 183.416L264.218 191.655L332.561 289.959C336.514 295.654 342.587 300.092 349.837 302.591C357.089 305.089 365.116 305.508 372.678 303.781C380.24 302.054 386.916 298.279 391.674 293.039C396.431 287.799 399.005 281.385 398.998 274.79Z" fill="url(#paint2_linear)"/>
<g style="mix-blend-mode:multiply" opacity="0.16">
<g style="mix-blend-mode:multiply" opacity="0.16">
<path d="M134.779 218.525V258.497C80.8753 183.286 23.8717 185.85 0.0195312 191.248V135.48C0.0207216 128.906 2.58757 122.514 7.32546 117.286C12.0634 112.059 18.7099 108.286 26.2433 106.548C33.7767 104.81 41.7799 105.203 49.0223 107.666C56.2646 110.129 62.3453 114.526 66.3293 120.182C66.383 120.227 66.383 120.272 66.4366 120.312L134.779 218.525Z" fill="black"/>
</g>
</g>
<g style="mix-blend-mode:multiply" opacity="0.16">
<g style="mix-blend-mode:multiply" opacity="0.16">
<path d="M398.996 218.795V274.789C398.998 281.381 396.422 287.789 391.666 293.026C386.909 298.262 380.236 302.034 372.678 303.76C365.12 305.486 357.098 305.069 349.849 302.575C342.6 300.08 336.529 295.647 332.573 289.958L264.237 191.654V158.798C320.603 212.945 371.668 219.964 398.996 218.795Z" fill="black"/>
</g>
</g>
<g style="mix-blend-mode:screen" opacity="0.5">
<g style="mix-blend-mode:screen" opacity="0.5">
<path d="M240.76 157.946C230.656 145.341 221.081 132.42 211.239 119.73L196.693 100.331L182.368 80.9101C172.791 67.8985 163.345 54.8455 154.027 41.7511C145.15 29.4624 136.542 17.0381 127.82 4.70423C107.021 4.79459 86.275 4.56868 65.5226 4.56868L32.7471 4.21296C23.2778 4.1226 13.7949 3.98703 4.29882 3.80632C3.92309 19.0204 3.38634 34.1893 2.79591 49.4033C1.83646 65.8768 1.2997 82.3502 0.0181885 98.8236V0H130.98L240.76 157.946Z" fill="white"/>
</g>
</g>
<g style="mix-blend-mode:multiply" opacity="0.25">
<g style="mix-blend-mode:multiply" opacity="0.25">
<path d="M398.995 0V260.836C397.123 239.099 396.05 217.351 395.144 195.614L394.179 163.029L393.594 130.398L393.38 97.8127L393.594 65.2216L394.179 32.591L395.091 3.06084C383.806 2.70505 372.527 2.38879 361.296 1.89182C348.729 1.44568 336.108 0.762397 323.542 0H398.995Z" fill="black"/>
</g>
</g>
<g style="mix-blend-mode:screen" opacity="0.5">
<g style="mix-blend-mode:screen" opacity="0.5">
<path d="M377.923 409.999H268.036L174.452 275.506C183.49 286.039 192.099 296.797 200.553 307.646C204.773 313.09 208.999 318.539 213.119 324.074C217.239 329.608 221.406 335.013 225.418 340.592C233.594 351.624 241.579 362.757 249.371 373.991C253.397 379.525 257.234 385.195 261.085 390.826L271.149 405.588C288.426 405.859 305.697 406.26 323.021 406.938C341.297 407.616 359.64 408.513 377.923 409.999Z" fill="white"/>
</g>
</g>
<g style="mix-blend-mode:multiply" opacity="0.25">
<g style="mix-blend-mode:multiply" opacity="0.25">
<path d="M134.778 271.322V409.999H19.6434C29.2178 409.186 38.8392 408.559 48.4136 408.017C57.988 407.475 67.6093 407.119 77.2642 406.713C86.8319 406.441 96.4063 406.041 106.034 405.906C113.784 405.77 121.54 405.589 129.35 405.498C129.242 395.463 129.135 385.377 129.296 375.342C129.35 363.776 129.665 352.187 129.967 340.638C130.396 329.117 130.933 317.547 131.678 305.981C132.423 294.415 133.328 282.888 134.778 271.322Z" fill="black"/>
</g>
</g>
<g style="mix-blend-mode:screen" opacity="0.7">
<g style="mix-blend-mode:screen" opacity="0.7">
<path d="M134.778 218.525L66.4353 120.312C66.3816 120.272 66.3817 120.227 66.328 120.182C62.344 114.527 56.2633 110.129 49.0209 107.666C41.7786 105.203 33.7754 104.81 26.242 106.548C18.7086 108.286 12.062 112.059 7.32412 117.286C2.58623 122.513 0.0193789 128.906 0.0181885 135.481V0C1.03132 11.2948 1.51457 22.5895 2.21236 33.8504C2.58809 39.4978 2.84965 45.1452 3.06435 50.7926L3.73534 67.7347C4.05739 79.0295 4.53383 90.3243 4.64118 101.585C4.69486 105.273 4.80209 108.927 4.85576 112.614C5.71458 111.846 6.62029 111.084 7.47911 110.316C9.15433 109.073 10.9033 107.903 12.7193 106.809C14.5912 105.815 16.6242 105.007 18.5499 104.149C20.6298 103.432 22.7163 102.89 24.8029 102.263C26.9969 101.901 29.1374 101.495 31.3247 101.269C33.5723 101.179 35.7662 101.043 37.9602 101.088C40.1542 101.359 42.3952 101.404 44.5892 101.856C46.7511 102.292 48.876 102.848 50.9497 103.522C53.0031 104.25 54.9881 105.106 56.8877 106.086C58.775 107.101 60.5691 108.234 62.2552 109.475C63.7514 110.824 65.4623 112.084 66.8042 113.524L70.5481 118.042L69.8771 117.364L70.6219 118.222C81.7461 134.697 92.6739 151.292 103.404 168.004C108.808 176.328 114.102 184.715 119.286 193.163C124.506 201.6 129.799 209.975 134.778 218.525Z" fill="white"/>
</g>
</g>
<g style="mix-blend-mode:screen" opacity="0.7">
<g style="mix-blend-mode:screen" opacity="0.7">
<path d="M399 274.79V410C398.034 398.745 397.558 387.45 396.86 376.195C396.163 364.939 395.84 353.645 395.31 342.395C395.041 331.14 394.64 319.845 394.398 308.59C394.344 304.902 394.237 301.209 394.183 297.521C393.063 298.554 391.889 299.588 390.708 300.582C386.366 303.754 381.286 306.129 375.792 307.556C373.067 308.266 370.275 308.778 367.445 309.087C364.58 309.305 361.696 309.275 358.838 308.996C353.101 308.511 347.557 306.991 342.58 304.541C340.076 303.272 337.759 301.755 335.683 300.023L332.529 297.278C331.728 296.426 330.977 295.54 330.282 294.624L329.215 293.314L328.732 292.687L328.249 292.054L327.981 291.693L326.163 288.948L322.479 283.459L315.045 272.43L300.499 250.331L286.113 228.098C281.303 220.716 276.754 213.2 272.105 205.728C267.502 198.347 262.905 190.921 258.517 183.444L264.241 191.683L332.583 289.987C336.542 295.675 342.616 300.107 349.867 302.6C357.118 305.092 365.141 305.505 372.699 303.776C380.257 302.047 386.928 298.271 391.681 293.032C396.435 287.793 399.007 281.382 399 274.79Z" fill="white"/>
</g>
</g>
<defs>
<linearGradient id="paint0_linear" x1="67.3993" y1="409.362" x2="67.3993" y2="135.904" gradientUnits="userSpaceOnUse">
<stop stop-color="#363636"/>
<stop offset="1" stop-color="#232323"/>
</linearGradient>
<linearGradient id="paint1_linear" x1="331.617" y1="7.31539" x2="331.617" y2="272.194" gradientUnits="userSpaceOnUse">
<stop stop-color="#363636"/>
<stop offset="1" stop-color="#0C0D0D"/>
</linearGradient>
<linearGradient id="paint2_linear" x1="3.63121e-08" y1="207.401" x2="399.001" y2="205.481" gradientUnits="userSpaceOnUse">
<stop stop-color="#F280B8"/>
<stop offset="0.0001" stop-color="#FF007D"/>
<stop offset="0.162" stop-color="#FF78BA"/>
<stop offset="0.307" stop-color="#FF76B9"/>
<stop offset="0.446" stop-color="#FF5AAB"/>
<stop offset="0.581" stop-color="#FF3A9B"/>
<stop offset="0.712" stop-color="#FF2B93"/>
<stop offset="0.842" stop-color="#FF1588"/>
<stop offset="1" stop-color="#FF0982"/>
</linearGradient>
</defs>
</svg>
